<svg version="1" xmlns="http://www.w3.org/2000/svg" width="1058.667" height="1058.667" viewBox="0 0 794.000000 794.000000"><path d="M28.9 71c0 .3-.2 147.8-.2 327.8-.1 217.5.1 327.2.8 327.3.6.1 19.8.2 42.8.3l41.7.1V425.3l131.3.1 131.2.1.2 142.5c.1 78.4.2 146.1.3 150.6v8.1l191.3-.1c105.1-.1 191.7-.5 192.2-.8.8-.5 1.3-89.1.6-103.3-.1-2-.8-2-132.1-2-118.2.1-132-.1-132.1-1.5 0-.8-.2-124.6-.2-275l-.2-273.5-59.7-.2L377 70v4.8c-.1 2.6-.1 65.1-.1 138.9V348H114l-.2-138.8-.3-138.7H71.3c-23.3 0-42.3.2-42.4.5z"/></svg>