<svg version="1" xmlns="http://www.w3.org/2000/svg" width="1600" height="1600" viewBox="0 0 1200.000000 1200.000000"><path d="M562.5 1.1C375.8 13 204.8 111.4 101.2 266.5 11 401.8-20.7 567.5 13.4 726.1 44.1 868.7 125.8 995.5 243 1082.2c138.5 102.5 314.7 140.6 483.1 104.4 152.2-32.8 286.4-123.9 372.7-253.1 90.2-135.3 121.9-301 87.8-459.6-30.7-142.6-112.4-269.4-229.6-356.1C852.7 40.6 726.2-.7 597 .1c-11.8.1-27.3.6-34.5 1zm177.3 262.1l.3 14.8H769v27h28v28h27v29h30.1l-.2 13.7-.2 13.8 13.6.3 13.7.3V474h28v27h-83.9l-.3-13.8-.3-13.7-13.5-.2-13.5-.1-.3-14.6-.3-14.6-84.7.2-84.7.3-.3 14.7-.3 14.7 14.6.3 14.6.3.2 13.3.2 13.2H516v-26.9l13.8-.3 13.7-.3v-29l-84.2-.3-84.2-.2-.3 14.6-.3 14.6-14 .1-14 .2-.3 13.7-.3 13.8H319V390.1l13.7-.3 13.6-.3-.2-13.8-.2-13.7H376v-29h27v-28h28v-27h29v-14.3c0-7.9.3-14.7.7-15 .3-.4 63.2-.6 139.7-.5l139.1.3.3 14.7zm-218 266.5l21.2.6V641H346.4v-55.3l.1-55.2 14.5-.5c22.2-.9 137-1.1 160.8-.3zm281.8 0l20.2.6.7 28.4c.4 15.7.4 40.6 0 55.4l-.7 26.9H628V530.1l14.8-.4c31.3-.6 141.7-.7 160.8 0zm-513.4 43l.3 13.8 13.8.3 13.7.3V671h197v26.9l-13.7.3-13.8.3-.3 42.2-.2 42.3h-57v27h-27l-.2 70.7-.3 70.8-13.2.3-13.3.3V838h-30.1l.2-13.8.2-13.7-13.6-.3-13.7-.3V755l-28.2.2-28.3.3-.2 13.5-.1 13.5-14.1.3-14.1.3V755h-28V587.1l13.8-.3 13.7-.3.3-13.8.3-13.7h55.8l.3 13.7zM600 629v70h27v26.9l14.8.3 14.7.3.3 14.2.3 14.2-14.8.3-14.8.3-.3 13.8-.3 13.7-41.7-.2-41.7-.3-.3-13.8-.3-13.7H516v-29h27v-26.9l14.8-.3 14.7-.3.3-69.8.2-69.7h27v70zm366.2-56.3l.3 13.8 13.8.3 13.7.3V726h-28v29h-28.5v-28.5l-28.2-.3-28.3-.2v56.9l-13.6.3-13.6.3.1 13.2.2 13.2-14.8.3-14.8.3-.3 13.7-.3 13.8H797l-.2 56.7-.3 56.8-13.2.3-13.3.3-.2-70.8-.3-70.8-14.8-.3-14.8-.3.2-13.2.1-13.2-27.6-.3-27.6-.2v-85h-28v-27h197v-83.9l13.8-.3 13.7-.3.3-13.8.3-13.7h83.8l.3 13.7zM712 853v14h-27v28H488v-28h-28v-28h252v14zM487 966v14h198v-28h27v83l-125.7-.2-125.8-.3-.3-40c-.1-22 0-40.6.3-41.2.3-1 4-1.3 13.5-1.3h13v14z"/><path d="M431 586v28h57l-.2-27.8-.3-27.7-28.2-.3-28.3-.2v28zM685 558.5c0 .3 0 12.8-.1 27.7v27.3l27.6.3 27.5.2v-56h-27.5c-15.1 0-27.5.2-27.5.5z"/></svg>